#!OML:ASF H:\Terrain\Patient Classification 1\Animal2\Wednesday\Animal2.ASF
:FULLY-SPECIFIED
:DEGREES
1362
root 14.7833 16.4051 -4.14408 -0.887646 -22.0116 -5.31908
lowerback 10.2335 5.80006 6.15014
upperback 1.66722 8.41318 1.53772
thorax -3.30291 4.10591 -2.8461
lowerneck 13.7577 11.1194 20.7202
upperneck -21.6435 13.9544 -35.4158
head -3.82408 8.85472 -16.8849
rclavicle -3.63527e-014 -2.90226e-014
rhumerus -28.1952 -0.0759039 -75.3032
rradius 113.045
rwrist -20.7201
rhand -24.9394 3.47358
rfingers 7.12502
rthumb 1.57006 -26.5004
lclavicle -3.63527e-014 -2.90226e-014
lhumerus -48.8945 17.7684 47.3486
lradius 116.161
lwrist 26.9018
lhand -41.0799 38.4912
lfingers 7.12502
lthumb -14.0086 67.9992
rfemur -26.1526 19.1912 11.4404
rtibia 48.627
rfoot -27.6391 4.03961
rtoes -20.2807
lfemur -4.34983 -9.00791 -0.968662
ltibia 49.337
lfoot -21.6246 20.9525
ltoes -35.0148
1363
root 14.7476 16.4114 -4.14087 -0.879129 -22.1069 -5.14961
lowerback 10.6919 6.01721 5.86452
upperback 1.27003 8.73686 1.73746
thorax -4.01928 4.23484 -2.61066
lowerneck 14.054 11.1146 20.5745
upperneck -21.1447 14.056 -35.4348
head -3.72529 8.92847 -16.8368
rclavicle 4.37823e-014 -5.1684e-015
rhumerus -28.7842 0.43609 -75.0837
rradius 113.188
rwrist -20.3683
rhand -24.5118 3.18814
rfingers 7.12502
rthumb 1.98303 -26.7824
lclavicle 4.37823e-014 -5.1684e-015
lhumerus -50.3511 17.9735 46.8607
lradius 116.324
lwrist 26.7235
lhand -40.9901 38.8216
lfingers 7.12502
lthumb -13.9221 68.3355
rfemur -26.2576 19.4712 11.3719
rtibia 48.8056
rfoot -27.9021 3.99991
rtoes -19.6411
lfemur -4.31565 -8.91996 -1.21795
ltibia 49.3449
lfoot -21.1967 21.7054
ltoes -35.0061
1364
root 14.7123 16.4037 -4.15544 -0.528425 -22.0383 -5.37882
lowerback 10.8826 6.15242 6.15633
upperback 1.01024 8.98306 1.7921
thorax -4.34356 4.33349 -2.78117
lowerneck 13.9934 11.1046 20.5699
upperneck -20.929 14.0805 -35.3943
head -3.65249 8.93018 -16.7842
rclavicle 1.20215e-013 -1.82882e-014
rhumerus -28.9514 0.498179 -75.1491
rradius 113.33
rwrist -19.9791
rhand -24.0209 2.55916
rfingers 7.12502
rthumb 2.45715 -27.4064
lclavicle 1.20215e-013 -1.82882e-014
lhumerus -51.1251 18.3144 46.2589
lradius 116.385
lwrist 26.6163
lhand -41.0662 39.3169
lfingers 7.12502
lthumb -13.9954 68.8258
rfemur -26.6733 19.6381 11.6471
rtibia 49.0328
rfoot -27.992 3.86527
rtoes -19.22
lfemur -4.7064 -8.98341 -0.835731
ltibia 49.3119
lfoot -21.5509 21.6458
ltoes -32.0835
1365
root 14.6792 16.389 -4.17299 -0.179594 -21.9286 -5.61389
lowerback 10.9339 6.21291 6.56495
upperback 0.881251 9.12181 1.75734
thorax -4.42787 4.38759 -3.06499
lowerneck 13.7788 11.1396 20.6146
upperneck -20.8125 14.1453 -35.283
head -3.56781 8.93387 -16.6923
rclavicle -1.11816e-014 -2.38542e-014
rhumerus -28.9185 0.612062 -75.3548
rradius 113.339
rwrist -19.9011
rhand -24.0053 2.73677
rfingers 7.12502
rthumb 2.47219 -27.2287
lclavicle -1.11816e-014 -2.38542e-014
lhumerus -51.6266 18.796 45.7493
lradius 116.422
lwrist 26.3936
lhand -41.5696 39.6946
lfingers 7.12502
lthumb -14.4805 69.1693
rfemur -27.102 19.8568 11.9253
rtibia 49.3171
rfoot -28.0218 3.21239
rtoes -19.7154
lfemur -5.10678 -9.0621 -0.380851
ltibia 49.2316
lfoot -22.4396 20.7858
ltoes -27.1596
1366
root 14.6477 16.3807 -4.17475 -0.145466 -21.7814 -5.36823
lowerback 10.8494 6.23029 6.61915
upperback 0.866737 9.13994 1.65075
thorax -4.36851 4.39762 -3.19463
lowerneck 13.8646 11.2505 20.5154
upperneck -20.8743 14.2969 -35.2012
head -3.57348 9.01685 -16.6294
rclavicle 4.44781e-015 -1.19271e-014
rhumerus -28.8612 0.887024 -75.5521
rradius 113.192
rwrist -20.0174
rhand -24.2081 3.40921
rfingers 7.12502
rthumb 2.27641 -26.5584
lclavicle 4.44781e-015 -1.19271e-014
lhumerus -52.2737 19.2667 45.3966
lradius 116.588
lwrist 26.2981
lhand -42.3529 40.0788
lfingers 7.12502
lthumb -15.2351 69.4978
rfemur -27.2878 19.9967 11.7468
rtibia 49.6392
rfoot -28.1817 2.50636
rtoes -20.1977
lfemur -5.1905 -9.06662 -0.568702
ltibia 49.0791
lfoot -22.9666 20.5775
ltoes -24.541
